<svg xmlns="http://www.w3.org/2000/svg" viewBox="0 0 180 180" role="img" aria-label="LedgerLift logo">
  <defs>
    <linearGradient id="lift" x1="28" x2="154" y1="22" y2="158" gradientUnits="userSpaceOnUse">
      <stop stop-color="#00a676"/>
      <stop offset=".52" stop-color="#26547c"/>
      <stop offset="1" stop-color="#f25f5c"/>
    </linearGradient>
  </defs>
  <rect x="12" y="12" width="156" height="156" rx="34" fill="#101915"/>
  <path d="M42 121V59c0-9 7-16 16-16h55c16 0 29 13 29 29 0 15-12 28-27 29l24 36h-31l-22-34H70v18H42Zm28-43h39c5 0 9-4 9-9s-4-9-9-9H70v18Z" fill="url(#lift)"/>
  <path d="M43 132h94" stroke="#fbfcf9" stroke-width="10" stroke-linecap="round"/>
  <path d="M66 132l22-22 18 12 29-35" fill="none" stroke="#ffbf69" stroke-width="9" stroke-linecap="round" stroke-linejoin="round"/>
</svg>
